<svg xmlns="http://www.w3.org/2000/svg" xmlns:xlink="http://www.w3.org/1999/xlink" width="500" zoomAndPan="magnify" viewBox="0 0 375 374.999991" height="500" preserveAspectRatio="xMidYMid meet" version="1.0"><defs><g/><clipPath id="771e036454"><path d="M 11.914062 153.292969 L 356.117188 153.292969 L 356.117188 221.542969 L 11.914062 221.542969 Z M 11.914062 153.292969 " clip-rule="nonzero"/></clipPath><clipPath id="fc181b90e4"><path d="M 33.550781 164.191406 L 84.550781 164.191406 L 84.550781 215.191406 L 33.550781 215.191406 Z M 33.550781 164.191406 " clip-rule="nonzero"/></clipPath></defs><path fill="#f7e2c9" d="M 50.820312 272.566406 C 11.621094 257.144531 0.378906 230.105469 17.09375 191.445312 C 33.8125 152.785156 53.171875 115.546875 75.171875 79.722656 C 97.171875 43.902344 129.074219 20.761719 170.886719 10.300781 C 212.695312 -0.160156 236.335938 20.113281 241.800781 71.117188 C 247.269531 122.125 271.835938 149.824219 315.507812 154.222656 C 359.179688 158.621094 374.289062 178.425781 360.839844 213.644531 C 347.386719 248.859375 331.273438 283.730469 312.496094 318.25 C 293.722656 352.773438 265.160156 368.183594 226.8125 364.480469 C 188.464844 360.773438 159.34375 348.386719 139.457031 327.3125 C 119.566406 306.238281 90.023438 287.988281 50.820312 272.566406 Z M 50.820312 272.566406 " fill-opacity="1" fill-rule="nonzero"/><path fill="#f7e2c9" d="M 31.046875 200.585938 C 2.296875 169.773438 3.78125 140.523438 35.496094 112.832031 C 67.210938 85.144531 100.699219 59.875 135.960938 37.023438 C 171.226562 14.167969 209.976562 7.03125 252.210938 15.609375 C 294.445312 24.183594 307.0625 52.667969 290.0625 101.0625 C 273.058594 149.453125 283.320312 185.042969 320.847656 207.835938 C 358.371094 230.625 363.492188 255.011719 336.203125 281 C 308.917969 306.988281 279.378906 331.515625 247.582031 354.585938 C 215.789062 377.65625 183.382812 379.253906 150.363281 359.386719 C 117.34375 339.515625 96.390625 315.785156 87.503906 288.191406 C 78.613281 260.601562 59.796875 231.398438 31.046875 200.585938 Z M 31.046875 200.585938 " fill-opacity="0.298" fill-rule="nonzero"/><g clip-path="url(#771e036454)"><path stroke-linecap="butt" transform="matrix(0.750767, 0, 0, 0.74833, 11.913979, 153.293707)" fill="none" stroke-linejoin="miter" d="M 0.000111436 -0.000986175 L 458.468932 -0.000986175 L 458.468932 91.202153 L 0.000111436 91.202153 L 0.000111436 -0.000986175 " stroke="#000000" stroke-width="10" stroke-opacity="1" stroke-miterlimit="4"/></g><g clip-path="url(#fc181b90e4)"><path fill="#ff3131" d="M 83.941406 188.925781 L 68.628906 180.410156 C 68.480469 180.320312 68.359375 180.199219 68.269531 180.050781 L 59.808594 164.640625 C 59.660156 164.339844 59.332031 164.191406 59.035156 164.191406 C 58.738281 164.191406 58.441406 164.339844 58.261719 164.640625 L 49.832031 180.050781 C 49.742188 180.199219 49.621094 180.320312 49.472656 180.410156 L 34.160156 188.925781 C 33.566406 189.253906 33.566406 190.125 34.160156 190.453125 L 49.472656 198.96875 C 49.621094 199.058594 49.742188 199.179688 49.832031 199.328125 L 58.289062 214.738281 C 58.46875 215.039062 58.765625 215.191406 59.066406 215.191406 C 59.363281 215.191406 59.660156 215.039062 59.839844 214.738281 L 68.300781 199.328125 C 68.390625 199.179688 68.507812 199.058594 68.65625 198.96875 L 83.96875 190.453125 C 84.535156 190.125 84.535156 189.253906 83.941406 188.925781 Z M 67.167969 196.332031 C 66.542969 196.691406 66.007812 197.199219 65.648438 197.859375 L 59.035156 209.914062 L 52.421875 197.859375 C 52.066406 197.230469 51.558594 196.691406 50.902344 196.332031 L 38.925781 189.675781 L 50.902344 183.019531 C 51.527344 182.660156 52.066406 182.148438 52.421875 181.488281 L 59.035156 169.4375 L 65.648438 181.488281 C 66.007812 182.121094 66.511719 182.660156 67.167969 183.019531 L 79.144531 189.675781 Z M 67.167969 196.332031 " fill-opacity="1" fill-rule="nonzero"/></g><path fill="#ff3131" d="M 66.421875 188.925781 L 62.371094 186.675781 C 62.222656 186.585938 62.105469 186.464844 62.015625 186.316406 L 59.78125 182.269531 C 59.601562 181.96875 59.304688 181.820312 59.003906 181.820312 C 58.707031 181.820312 58.410156 181.96875 58.230469 182.269531 L 56.054688 186.316406 C 55.96875 186.464844 55.847656 186.585938 55.699219 186.675781 L 51.675781 188.925781 C 51.082031 189.253906 51.082031 190.125 51.675781 190.453125 L 55.699219 192.703125 C 55.847656 192.792969 55.96875 192.914062 56.054688 193.0625 L 58.289062 197.109375 C 58.46875 197.410156 58.765625 197.558594 59.066406 197.558594 C 59.363281 197.558594 59.660156 197.410156 59.839844 197.109375 L 62.074219 193.0625 C 62.164062 192.914062 62.28125 192.792969 62.429688 192.703125 L 66.453125 190.453125 C 67.019531 190.125 67.019531 189.253906 66.421875 188.925781 Z M 60.941406 190.066406 C 60.316406 190.425781 59.78125 190.933594 59.421875 191.59375 L 59.035156 192.285156 L 58.648438 191.59375 C 58.289062 190.964844 57.785156 190.425781 57.128906 190.066406 L 56.445312 189.675781 L 57.128906 189.285156 C 57.753906 188.925781 58.289062 188.414062 58.648438 187.757812 L 59.035156 187.066406 L 59.421875 187.757812 C 59.78125 188.386719 60.285156 188.925781 60.941406 189.285156 L 61.628906 189.675781 Z M 60.941406 190.066406 " fill-opacity="1" fill-rule="nonzero"/><path stroke-linecap="butt" transform="matrix(-0.000000000000001286, 0.749596, -0.75, -0.000000000000001286, 101.084638, 156.905733)" fill="none" stroke-linejoin="miter" d="M 0.000689843 2.498267 L 87.052787 2.498267 " stroke="#000000" stroke-width="5" stroke-opacity="1" stroke-miterlimit="4"/><g fill="#000000" fill-opacity="1"><g transform="translate(132.849327, 182.36903)"><g><path d="M 1.074219 -15.039062 L 1.074219 -11.167969 L 6.648438 -11.167969 L 6.648438 -6.347656 C 6.648438 -3.550781 5.378906 -1.828125 4.691406 -1.828125 L 4.691406 2.042969 C 7.960938 2.042969 10.519531 -1.636719 10.519531 -6.347656 L 10.519531 -11.167969 L 12.886719 -11.167969 L 12.886719 -9.359375 L 16.761719 -9.359375 L 16.761719 -15.039062 Z M 1.074219 -15.039062 "/></g></g></g><g fill="#000000" fill-opacity="1"><g transform="translate(150.683064, 182.36903)"><g><path d="M 16.523438 -10.132812 L 14.761719 -10.132812 L 14.761719 -15.039062 L 10.886719 -15.039062 L 10.886719 -10.132812 L 6.347656 -10.132812 L 6.347656 -15.039062 L 2.472656 -15.039062 L 2.472656 -10.132812 L 0.539062 -10.132812 L 0.539062 -6.261719 L 2.496094 -6.261719 C 2.386719 -4.304688 1.484375 -2.96875 0.539062 -2.96875 L 0.539062 0.902344 C 3.507812 0.902344 5.875 -2.152344 6.28125 -6.261719 L 10.886719 -6.261719 L 10.886719 0.0234375 L 14.761719 0.0234375 L 14.761719 -6.261719 L 16.523438 -6.261719 Z M 16.523438 -10.132812 "/></g></g></g><g fill="#000000" fill-opacity="1"><g transform="translate(167.226054, 182.36903)"><g><path d="M 1.074219 -15.039062 L 1.074219 -11.167969 L 2.625 -11.167969 C 2.90625 -10.542969 3.226562 -9.984375 3.570312 -9.445312 L 1.074219 -9.445312 L 1.074219 -5.574219 C 1.074219 -2.238281 5.207031 0 8.175781 0 L 15.664062 0 L 15.664062 -3.871094 L 8.5625 -3.871094 C 7.25 -3.871094 5.53125 -4.519531 5.53125 -5.574219 L 15.664062 -5.574219 L 15.664062 -9.445312 L 9.746094 -9.445312 C 8.542969 -9.445312 7.636719 -10.070312 7.078125 -11.167969 L 15.664062 -11.167969 L 15.664062 -15.039062 Z M 1.074219 -15.039062 "/></g></g></g><g fill="#000000" fill-opacity="1"><g transform="translate(183.984164, 182.36903)"><g/></g></g><g fill="#000000" fill-opacity="1"><g transform="translate(192.373984, 182.36903)"><g><path d="M 14.308594 -15.039062 L 14.308594 -5.832031 C 13.554688 -6.152344 12.714844 -6.347656 11.832031 -6.347656 L 11.574219 -6.347656 L 11.574219 -11.789062 L 7.679688 -11.789062 L 7.679688 -6.347656 L 7.421875 -6.347656 C 6.539062 -6.347656 5.703125 -6.152344 4.949219 -5.832031 L 4.949219 -15.039062 L 1.074219 -15.039062 L 1.074219 -0.109375 C 1.074219 -0.0664062 1.074219 -0.0234375 1.074219 0 L 4.949219 0 C 4.949219 -1.355469 6.046875 -2.472656 7.421875 -2.472656 L 11.832031 -2.472656 C 13.210938 -2.472656 14.308594 -1.355469 14.308594 0 L 18.179688 0 C 18.179688 -0.0234375 18.179688 -0.0664062 18.179688 -0.109375 L 18.179688 -15.039062 Z M 14.308594 -15.039062 "/></g></g></g><g fill="#000000" fill-opacity="1"><g transform="translate(211.64905, 182.36903)"><g><path d="M 9.898438 -15.0625 L 7.421875 -15.0625 C 3.914062 -15.0625 1.074219 -12.222656 1.074219 -8.714844 L 1.074219 -6.324219 C 1.074219 -2.839844 3.914062 0.0234375 7.421875 0.0234375 L 9.898438 0.0234375 C 13.40625 0.0234375 16.265625 -2.839844 16.265625 -6.324219 L 16.265625 -8.714844 C 16.265625 -12.222656 13.40625 -15.0625 9.898438 -15.0625 Z M 12.394531 -6.324219 C 12.394531 -4.96875 11.273438 -3.851562 9.898438 -3.851562 L 7.421875 -3.851562 C 6.046875 -3.851562 4.949219 -4.96875 4.949219 -6.324219 L 4.949219 -8.714844 C 4.949219 -10.070312 6.046875 -11.1875 7.421875 -11.1875 L 9.898438 -11.1875 C 11.273438 -11.1875 12.394531 -10.070312 12.394531 -8.714844 Z M 8.671875 -9.359375 C 7.617188 -9.359375 6.757812 -8.519531 6.757812 -7.464844 C 6.757812 -6.410156 7.617188 -5.574219 8.671875 -5.574219 C 9.703125 -5.574219 10.5625 -6.410156 10.5625 -7.464844 C 10.5625 -8.519531 9.703125 -9.359375 8.671875 -9.359375 Z M 8.671875 -9.359375 "/></g></g></g><g fill="#000000" fill-opacity="1"><g transform="translate(228.988008, 182.36903)"><g><path d="M 13.511719 -4.710938 L 16.738281 -4.710938 L 16.738281 -15.039062 L 1.074219 -15.039062 L 1.074219 -4.710938 L 2.882812 -4.710938 L 2.882812 0 L 6.757812 0 L 6.757812 -4.710938 L 9.53125 -4.710938 C 10.738281 0.34375 13.855469 3.871094 17.644531 3.871094 L 17.644531 0 C 16.09375 0 14.414062 -1.808594 13.511719 -4.710938 Z M 4.949219 -11.167969 L 12.867188 -11.167969 L 12.867188 -8.585938 L 4.949219 -8.585938 Z M 4.949219 -11.167969 "/></g></g></g><g fill="#000000" fill-opacity="1"><g transform="translate(246.64966, 182.36903)"><g><path d="M 9.488281 -6.410156 L 9.488281 -6.347656 C 9.488281 -4.96875 8.371094 -3.871094 7.015625 -3.871094 L 4.949219 -3.871094 L 4.949219 -15.039062 L 1.074219 -15.039062 L 1.074219 0 L 7.015625 0 C 10.519531 0 13.359375 -2.839844 13.359375 -6.347656 L 13.359375 -6.410156 Z M 9.488281 -6.410156 "/></g></g></g><g fill="#000000" fill-opacity="1"><g transform="translate(260.568146, 182.36903)"><g><path d="M 5.789062 -15.039062 L 5.789062 -17.492188 L 1.894531 -17.492188 L 1.894531 -15.039062 L 0 -15.039062 L 0 -11.167969 L 1.894531 -11.167969 L 1.894531 0.0234375 L 5.789062 0.0234375 L 5.789062 -11.167969 L 12.929688 -11.167969 L 12.929688 -6.347656 C 12.929688 -4.96875 11.8125 -3.851562 10.433594 -3.851562 L 8.199219 -3.851562 L 8.199219 0.0234375 L 10.433594 0.0234375 C 13.941406 0.0234375 16.804688 -2.839844 16.804688 -6.347656 L 16.804688 -15.039062 Z M 5.789062 -15.039062 "/></g></g></g><g fill="#ff3131" fill-opacity="1"><g transform="translate(132.849327, 204.603116)"><g><path d="M 17.0625 -11.167969 L 17.0625 -15.039062 L 7.292969 -15.039062 L 7.292969 -17.492188 L 3.421875 -17.492188 L 3.421875 -15.039062 L 1.074219 -15.039062 L 1.074219 -11.167969 L 3.421875 -11.167969 L 3.421875 -9.445312 L 1.074219 -9.445312 L 1.074219 -5.550781 L 13.1875 -5.550781 L 13.1875 -3.871094 L 1.074219 -3.871094 L 1.074219 0 L 17.0625 0 L 17.0625 -9.445312 L 7.292969 -9.445312 L 7.292969 -11.167969 Z M 17.0625 -11.167969 "/></g></g></g><g fill="#ff3131" fill-opacity="1"><g transform="translate(151.005758, 204.603116)"><g><path d="M 1.074219 -15.039062 L 1.074219 -11.167969 L 6.648438 -11.167969 L 6.648438 -6.347656 C 6.648438 -3.550781 5.378906 -1.828125 4.691406 -1.828125 L 4.691406 2.042969 C 7.960938 2.042969 10.519531 -1.636719 10.519531 -6.347656 L 10.519531 -11.167969 L 12.886719 -11.167969 L 12.886719 -9.359375 L 16.761719 -9.359375 L 16.761719 -15.039062 Z M 1.074219 -15.039062 "/></g></g></g><g fill="#ff3131" fill-opacity="1"><g transform="translate(168.839495, 204.603116)"><g><path d="M 7.421875 -3.851562 C 6.046875 -3.851562 4.949219 -4.96875 4.949219 -6.324219 L 4.949219 -6.390625 L 1.074219 -6.390625 L 1.074219 -6.324219 C 1.074219 -2.839844 3.914062 0.0234375 7.421875 0.0234375 L 16.265625 0.0234375 L 16.265625 -3.851562 Z M 4.949219 -6.390625 L 4.949219 -15.039062 L 1.074219 -15.039062 L 1.074219 -6.390625 Z M 14.328125 -5.894531 L 14.328125 -15.039062 L 10.457031 -15.039062 L 10.457031 -5.894531 Z M 14.328125 -5.894531 "/></g></g></g><g fill="#ff3131" fill-opacity="1"><g transform="translate(185.124356, 204.603116)"><g><path d="M 5.789062 -15.039062 L 5.789062 -17.492188 L 1.894531 -17.492188 L 1.894531 -15.039062 L 0 -15.039062 L 0 -11.167969 L 1.894531 -11.167969 L 1.894531 0.0234375 L 5.789062 0.0234375 L 5.789062 -11.167969 L 12.929688 -11.167969 L 12.929688 -6.347656 C 12.929688 -4.96875 11.8125 -3.851562 10.433594 -3.851562 L 8.199219 -3.851562 L 8.199219 0.0234375 L 10.433594 0.0234375 C 13.941406 0.0234375 16.804688 -2.839844 16.804688 -6.347656 L 16.804688 -15.039062 Z M 5.789062 -15.039062 "/></g></g></g><g fill="#ff3131" fill-opacity="1"><g transform="translate(203.022632, 204.603116)"><g><path d="M 4.925781 -15.039062 L 1.074219 -15.039062 L 1.074219 -6.347656 C 1.074219 -1.65625 3.613281 2.042969 6.886719 2.042969 L 6.886719 -1.828125 C 6.195312 -1.828125 4.925781 -3.550781 4.925781 -6.347656 Z M 4.925781 -15.039062 "/></g></g></g><g fill="#ff3131" fill-opacity="1"><g transform="translate(209.928088, 204.603116)"><g><path d="M 9.898438 -15.0625 L 7.421875 -15.0625 C 3.914062 -15.0625 1.074219 -12.222656 1.074219 -8.714844 L 1.074219 -6.324219 C 1.074219 -2.839844 3.914062 0.0234375 7.421875 0.0234375 L 9.898438 0.0234375 C 13.40625 0.0234375 16.265625 -2.839844 16.265625 -6.324219 L 16.265625 -8.714844 C 16.265625 -12.222656 13.40625 -15.0625 9.898438 -15.0625 Z M 12.394531 -6.324219 C 12.394531 -4.96875 11.273438 -3.851562 9.898438 -3.851562 L 7.421875 -3.851562 C 6.046875 -3.851562 4.949219 -4.96875 4.949219 -6.324219 L 4.949219 -8.714844 C 4.949219 -10.070312 6.046875 -11.1875 7.421875 -11.1875 L 9.898438 -11.1875 C 11.273438 -11.1875 12.394531 -10.070312 12.394531 -8.714844 Z M 8.671875 -9.359375 C 7.617188 -9.359375 6.757812 -8.519531 6.757812 -7.464844 C 6.757812 -6.410156 7.617188 -5.574219 8.671875 -5.574219 C 9.703125 -5.574219 10.5625 -6.410156 10.5625 -7.464844 C 10.5625 -8.519531 9.703125 -9.359375 8.671875 -9.359375 Z M 8.671875 -9.359375 "/></g></g></g><g fill="#ff3131" fill-opacity="1"><g transform="translate(227.267046, 204.603116)"><g><path d="M 8.519531 -11.167969 C 9.316406 -11.167969 17.191406 -11.167969 17.191406 -11.167969 L 17.191406 -15.039062 L 8.347656 -15.039062 C 4.347656 -15.039062 1.074219 -11.984375 1.074219 -8.714844 C 1.074219 -7.746094 1.074219 -5.59375 1.074219 -5.59375 L 1.074219 -5.574219 L 12.738281 -5.574219 C 12.738281 -4.476562 11.082031 -3.871094 9.683594 -3.871094 L 1.074219 -3.871094 L 1.074219 0 L 10.070312 0 C 13.058594 0 17.191406 -2.257812 17.191406 -5.574219 L 17.191406 -9.445312 L 5.378906 -9.46875 C 5.378906 -10.304688 6.582031 -11.167969 8.519531 -11.167969 Z M 8.519531 -11.167969 "/></g></g></g></svg>